#!OML:ASF X:\für Bonn\!DataBase\2005_08_10_Bjorn_Final\c3d\bjorn.ASF
:FULLY-SPECIFIED
:DEGREES
233
root -0.126968 19.303 -0.507999 -179.41 26.8161 183.273
lowerback -9.58983 3.29261 1.75934
upperback 4.96644 4.66984 -3.2105
thorax 11.1911 2.58168 -3.55195
lowerneck -2.92835 1.12132 7.99246
upperneck 22.1305 2.71586 -2.23739
head 7.39148 2.32772 -1.81216
rclavicle 1.39149e-015 9.22361e-014
rhumerus -278.934 15.387 233.334
rradius 9.83112
rwrist 72.2926
rhand -24.8085 12.5907
rfingers 7.12502
rthumb 1.69655 -17.3823
lclavicle 1.39149e-015 9.22361e-014
lhumerus 65.5851 -15.2725 91.6585
lradius 43.2444
lwrist 46.2585
lhand -50.838 -1.25486
lfingers 7.12502
lthumb -23.3932 27.3434
rfemur 0.570112 6.73438 4.30123
rtibia 34.8827
rfoot 11.6855 17.6739
rtoes -22.5351
lfemur -10.5383 9.61496 -12.1329
ltibia 28.2134
lfoot -9.98609 -17.8609
ltoes -3.69518
234
root -0.127447 19.3034 -0.492594 -179.442 26.7501 183.27
lowerback -9.50668 3.27358 1.78468
upperback 4.99856 4.64523 -3.21803
thorax 11.1782 2.57403 -3.58268
lowerneck -2.83643 1.09959 7.86129
upperneck 22.1453 2.69712 -2.13463
head 7.37578 2.32155 -1.75838
rclavicle 5.50634e-014 2.70347e-014
rhumerus -278.951 15.4037 233.323
rradius 9.83016
rwrist 72.2202
rhand -24.7841 12.7201
rfingers 7.12502
rthumb 1.7201 -17.2527
lclavicle 5.50634e-014 2.70347e-014
lhumerus 65.5502 -15.3087 91.6028
lradius 43.3391
lwrist 46.1676
lhand -50.7511 -1.22268
lfingers 7.12502
lthumb -23.3098 27.3862
rfemur 0.530471 6.8653 4.35212
rtibia 34.9508
rfoot 11.6838 17.6897
rtoes -22.5912
lfemur -10.5513 9.74161 -12.0993
ltibia 28.1767
lfoot -9.91973 -18.0979
ltoes -3.89139
235
root -0.128113 19.3044 -0.477302 -179.48 26.6768 183.272
lowerback -9.4039 3.26174 1.8417
upperback 5.00971 4.62634 -3.23972
thorax 11.1346 2.57154 -3.64682
lowerneck -2.68308 1.05635 7.76375
upperneck 22.1635 2.66269 -2.06328
head 7.35022 2.31079 -1.72216
rclavicle -6.95746e-015 3.18055e-014
rhumerus -278.975 15.3848 233.293
rradius 9.81858
rwrist 72.1495
rhand -24.7067 12.7913
rfingers 7.12502
rthumb 1.79487 -17.1809
lclavicle -6.95746e-015 3.18055e-014
lhumerus 65.4759 -15.3667 91.5258
lradius 43.4405
lwrist 46.0618
lhand -50.6544 -1.07833
lfingers 7.12502
lthumb -23.2171 27.5422
rfemur 0.498005 6.94973 4.399
rtibia 35.02
rfoot 11.6881 17.7348
rtoes -22.6831
lfemur -10.5532 9.78304 -12.0651
ltibia 28.1385
lfoot -9.87244 -18.2573
ltoes -4.00704
236
root -0.128494 19.3044 -0.461974 -179.536 26.606 183.25
lowerback -9.28978 3.25513 1.87071
upperback 5.01417 4.61711 -3.25383
thorax 11.0742 2.57081 -3.68561
lowerneck -2.4976 1.00965 7.62024
upperneck 22.1552 2.62197 -1.95453
head 7.30892 2.29592 -1.66679
rclavicle -8.74653e-015 1.59028e-015
rhumerus -279.016 15.3126 233.292
rradius 9.84245
rwrist 72.1074
rhand -24.6206 12.917
rfingers 7.12502
rthumb 1.87802 -17.0545
lclavicle -8.74653e-015 1.59028e-015
lhumerus 65.3692 -15.4349 91.456
lradius 43.568
lwrist 45.9711
lhand -50.62 -0.875432
lfingers 7.12502
lthumb -23.1841 27.7493
rfemur 0.474665 7.01413 4.41724
rtibia 35.0936
rfoot 11.6897 17.7727
rtoes -22.8058
lfemur -10.5441 9.82048 -12.0567
ltibia 28.0938
lfoot -9.80821 -18.4023
ltoes -4.1219
237
root -0.128385 19.3044 -0.447028 -179.6 26.5306 183.229
lowerback -9.17953 3.24534 1.90796
upperback 5.02555 4.60489 -3.2797
thorax 11.0256 2.57039 -3.74207
lowerneck -2.29532 0.95137 7.57124
upperneck 22.1352 2.56932 -1.90917
head 7.26241 2.2774 -1.64912
rclavicle 2.28602e-014 4.92986e-014
rhumerus -279.065 15.2168 233.275
rradius 9.88974
rwrist 72.0905
rhand -24.6978 13.0408
rfingers 7.12502
rthumb 1.80346 -16.9313
lclavicle 2.28602e-014 4.92986e-014
lhumerus 65.2704 -15.5095 91.3749
lradius 43.6767
lwrist 45.8211
lhand -50.6195 -0.635971
lfingers 7.12502
lthumb -23.1835 27.9888
rfemur 0.464326 7.06922 4.43745
rtibia 35.1689
rfoot 11.6686 17.7937
rtoes -22.8409
lfemur -10.5194 9.82918 -12.0465
ltibia 28.0418
lfoot -9.74042 -18.5207
ltoes -4.18459
238
root -0.128235 19.3054 -0.431856 -179.656 26.4526 183.211
lowerback -9.0604 3.22632 1.93615
upperback 5.0163 4.57759 -3.29198
thorax 10.9448 2.56 -3.7824
lowerneck -2.00823 0.896838 7.48439
upperneck 22.0688 2.52751 -1.83677
head 7.18551 2.26311 -1.61637
rclavicle -1.23246e-014 6.67916e-014
rhumerus -279.154 15.0967 233.257
rradius 9.94205
rwrist 72.0999
rhand -24.7915 13.1926
rfingers 7.12502
rthumb 1.71292 -16.7803
lclavicle -1.23246e-014 6.67916e-014
lhumerus 65.1483 -15.5463 91.3114
lradius 43.769
lwrist 45.6592
lhand -50.6027 -0.410447
lfingers 7.12502
lthumb -23.1675 28.2164
rfemur 0.442186 7.10765 4.45888
rtibia 35.249
rfoot 11.6689 17.8156
rtoes -22.8821
lfemur -10.4984 9.73762 -12.0432
ltibia 27.984
lfoot -9.73123 -18.5269
ltoes -4.44288
239
root -0.127365 19.3051 -0.416891 -179.71 26.3785 183.189
lowerback -8.96536 3.21352 1.96649
upperback 5.01631 4.5593 -3.30575
thorax 10.89 2.55459 -3.82243
lowerneck -1.75656 0.841419 7.4385
upperneck 22.0173 2.48292 -1.79547
head 7.12077 2.24791 -1.60045
rclavicle -4.65156e-014 3.18055e-015
rhumerus -279.231 14.9688 233.251
rradius 10.0094
rwrist 72.1311
rhand -24.8941 13.312
rfingers 7.12502
rthumb 1.61381 -16.6616
lclavicle -4.65156e-014 3.18055e-015
lhumerus 65.0337 -15.5935 91.2792
lradius 43.8514
lwrist 45.4738
lhand -50.5968 -0.151531
lfingers 7.12502
lthumb -23.1618 28.476
rfemur 0.419959 7.13191 4.47641
rtibia 35.3287
rfoot 11.6417 17.8719
rtoes -22.9618
lfemur -10.4706 9.59439 -12.0456
ltibia 27.9211
lfoot -9.70453 -18.4885
ltoes -4.50076
240
root -0.126662 19.3046 -0.402063 -179.781 26.3162 183.169
lowerback -8.85853 3.19768 1.9873
upperback 5.0295 4.53662 -3.30002
thorax 10.8399 2.54565 -3.83703
lowerneck -1.51334 0.783324 7.35608
upperneck 21.9521 2.43411 -1.75974
head 7.05242 2.22564 -1.58053
rclavicle 5.60573e-014 -1.74931e-014
rhumerus -278.961 15.0457 234.662
rradius 10.0944
rwrist 70.8145
rhand -24.947 13.2734
rfingers 7.12502
rthumb 1.56278 -16.7006
lclavicle 5.60573e-014 -1.74931e-014
lhumerus 64.9473 -15.612 91.2317
lradius 43.9108
lwrist 45.3271
lhand -50.6367 -0.0191605
lfingers 7.12502
lthumb -23.2001 28.6035
rfemur 0.409385 7.12951 4.48695
rtibia 35.4102
rfoot 11.6083 17.9456
rtoes -23.2001
lfemur -10.4168 9.37592 -12.0528
ltibia 27.8528
lfoot -9.70967 -18.3616
ltoes -4.63285
241
root -0.124845 19.3047 -0.387747 -179.835 26.245 183.167
lowerback -8.76602 3.19282 2.04067
upperback 5.0312 4.52638 -3.31532
thorax 10.7915 2.54592 -3.88992
lowerneck -1.24285 0.718186 7.37163
upperneck 21.8763 2.37725 -1.75355
head 6.97737 2.20563 -1.5873
rclavicle -8.34896e-015 7.95139e-014
rhumerus -278.657 15.0756 236.12
rradius 10.1948
rwrist 69.4878
rhand -25.0345 13.1744
rfingers 7.12502
rthumb 1.47828 -16.8003
lclavicle -8.34896e-015 7.95139e-014
lhumerus 64.8506 -15.6666 91.145
lradius 43.9502
lwrist 45.1927
lhand -50.6153 0.0802593
lfingers 7.12502
lthumb -23.1796 28.7055
rfemur 0.402006 7.14238 4.52442
rtibia 35.4923
rfoot 11.5539 17.9944
rtoes -23.2941
lfemur -10.3677 9.13669 -12.0386
ltibia 27.7842
lfoot -9.69618 -18.2063
ltoes -4.62369
242
root -0.122579 19.3049 -0.373322 -179.9 26.1944 183.158
lowerback -8.65125 3.1825 2.06581
upperback 5.02238 4.50895 -3.31037
thorax 10.7128 2.5387 -3.90752
lowerneck -0.953844 0.662722 7.35357
upperneck 21.7907 2.336 -1.73677
head 6.89631 2.19111 -1.58405
rclavicle -6.75868e-015 1.74931e-014
rhumerus -278.469 15.0971 237.287
rradius 10.2823
rwrist 68.4342
rhand -25.129 13.1791
rfingers 7.12502
rthumb 1.38696 -16.7961
lclavicle -6.75868e-015 1.74931e-014
lhumerus 64.7222 -15.6786 91.1139
lradius 43.9803
lwrist 45.05
lhand -50.5985 0.131251
lfingers 7.12502
lthumb -23.1635 28.7586
rfemur 0.395012 7.1497 4.54742
rtibia 35.5725
rfoot 11.5197 18.0282
rtoes -23.3022
lfemur -10.3052 8.78733 -12.0411
ltibia 27.7145
lfoot -9.71289 -17.926
ltoes -4.6801
243
root -0.119998 19.3032 -0.358786 -179.985 26.1339 183.122
lowerback -8.55564 3.16885 2.06271
upperback 5.04398 4.49407 -3.30904
thorax 10.6779 2.53254 -3.91111
lowerneck -0.73021 0.612023 7.33544
upperneck 21.7129 2.29158 -1.72336
head 6.82928 2.17265 -1.58152
rclavicle 3.12092e-014 -2.70347e-014
rhumerus -278.285 15.1119 238.304
rradius 10.365
rwrist 67.5921
rhand -25.2637 13.1976
rfingers 7.12502
rthumb 1.25692 -16.7785
lclavicle 3.12092e-014 -2.70347e-014
lhumerus 64.6412 -15.6892 91.0786
lradius 44.0165
lwrist 44.9627
lhand -50.547 0.148223
lfingers 7.12502
lthumb -23.114 28.7817
rfemur 0.403734 7.14134 4.54777
rtibia 35.6496
rfoot 11.4665 18.1164
rtoes -23.4848
lfemur -10.236 8.52804 -12.0609
ltibia 27.6479
lfoot -9.69762 -17.7319
ltoes -4.60834
244
root -0.116911 19.3027 -0.344426 -180.053 26.0757 183.107
lowerback -8.47062 3.15167 2.07139
upperback 5.05997 4.46951 -3.29056
thorax 10.6414 2.52097 -3.9042
lowerneck -0.473843 0.569803 7.32712
upperneck 21.6081 2.2667 -1.74791
head 6.74924 2.16053 -1.59209
rclavicle 5.38706e-014 2.70347e-014
rhumerus -278.129 15.1494 239.292
rradius 10.4513
rwrist 66.7312
rhand -25.3885 13.2254
rfingers 7.12502
rthumb 1.13634 -16.7514
lclavicle 5.38706e-014 2.70347e-014
lhumerus 64.5247 -15.6844 91.0585
lradius 44.0671
lwrist 44.7856
lhand -50.4484 0.195578
lfingers 7.12502
lthumb -23.0194 28.8409
rfemur 0.403078 7.14964 4.57067
rtibia 35.7255
rfoot 11.4385 18.1177
rtoes -23.4416
lfemur -10.1771 8.18481 -12.0656
ltibia 27.5865
lfoot -9.6322 -17.4538
ltoes -4.25249
245
root -0.112714 19.3016 -0.329992 -180.136 26.0295 183.093
lowerback -8.36386 3.14099 2.08279
upperback 5.07346 4.4555 -3.28494
thorax 10.5916 2.51554 -3.91177
lowerneck -0.231228 0.523937 7.36884
upperneck 21.5153 2.23481 -1.78081
head 6.67609 2.14887 -1.61387
rclavicle -3.08116e-014 -5.725e-014
rhumerus -277.965 15.1626 240.318
rradius 10.5545
rwrist 65.8592
rhand -25.5549 13.266
rfingers 7.12502
rthumb 0.975633 -16.7115
lclavicle -3.08116e-014 -5.725e-014
lhumerus 64.3855 -15.6932 91.0462
lradius 44.1295
lwrist 44.6128
lhand -50.2933 0.15986
lfingers 7.12502
lthumb -22.8706 28.8237
rfemur 0.421033 7.13641 4.59099
rtibia 35.7986
rfoot 11.4015 18.1948
rtoes -23.4514
lfemur -10.099 7.80726 -12.0658
ltibia 27.5326
lfoot -9.62469 -17.1337
ltoes -4.11322
246
root -0.107995 19.3001 -0.315339 -180.203 25.9854 183.095
lowerback -8.28855 3.13276 2.09437
upperback 5.10649 4.44336 -3.26055
thorax 10.5809 2.51069 -3.89696
lowerneck 0.000758668 0.486714 7.37057
upperneck 21.3859 2.20527 -1.78799
head 6.59261 2.13398 -1.62058
rclavicle -4.33351e-014 -3.49861e-014
rhumerus -277.771 15.1918 241.403
rradius 10.6863
rwrist 64.9985
rhand -25.7344 13.2688
rfingers 7.12502
rthumb 0.802296 -16.7095
lclavicle -4.33351e-014 -3.49861e-014
lhumerus 64.2608 -15.7006 91.0191
lradius 44.2239
lwrist 44.4507
lhand -50.1109 0.0754693
lfingers 7.12502
lthumb -22.6955 28.7608
rfemur 0.436122 7.15151 4.63915
rtibia 35.8631
rfoot 11.3437 18.2153
rtoes -23.4941
lfemur -10.0377 7.50983 -12.0524
ltibia 27.4898
lfoot -9.60674 -16.8575
ltoes -3.99037
247
root -0.102684 19.2989 -0.301568 -180.278 25.9418 183.099
lowerback -8.19909 3.12972 2.12596
upperback 5.12409 4.43647 -3.24965
thorax 10.548 2.50996 -3.908
lowerneck 0.238543 0.441698 7.41134
upperneck 21.2859 2.17198 -1.81332
head 6.51825 2.12156 -1.63964
rclavicle -5.32743e-014 -1.11319e-014
rhumerus -277.647 15.1817 242.356
rradius 10.844
rwrist 64.2711
rhand -25.926 13.3099
rfingers 7.12502
rthumb 0.617178 -16.669
lclavicle -5.32743e-014 -1.11319e-014
lhumerus 64.079 -15.7343 90.9826
lradius 44.3726
lwrist 44.3263
lhand -49.9566 -0.0770995
lfingers 7.12502
lthumb -22.5474 28.6263
rfemur 0.465077 7.15431 4.68567
rtibia 35.9223
rfoot 11.2834 18.2513
rtoes -23.5444
lfemur -9.97383 7.21055 -12.0345
ltibia 27.4598
lfoot -9.57803 -16.5755
ltoes -3.74084
